<svg xmlns="http://www.w3.org/2000/svg" width="172.952" height="49.109" viewBox="0 0 172.952 49.109">
  <g id="Group_1589" data-name="Group 1589" transform="translate(-57.048 -23)">
    <text id="HorseBnB" transform="translate(114 57)" fill="#fa5a60" font-size="24" font-family="OpenSans-Semibold, Open Sans" font-weight="600"><tspan x="0" y="0">HorseBnB</tspan></text>
    <g id="Layer_2" data-name="Layer 2" transform="translate(57.044 22.997)">
      <g id="New_Layer" data-name="New Layer" transform="translate(0.004 0.003)">
        <path id="Path_1591" data-name="Path 1591" d="M20.871.369a15.041,15.041,0,0,0-5.219,3.814C12.591,7.369,7.974,14.671,4.411,21.9c-5.52,11.216-5.846,18.668-1.029,23.26C6.017,47.666,9.128,48.8,14.1,49.021c3.036.125,3.839-.025,3.563-.7-.1-.276-.828-.4-2.986-.527-7.151-.4-11.492-2.911-12.847-7.452A20.594,20.594,0,0,1,1.9,32.034C3.081,26.715,6.9,18.962,12.666,10.1c2.434-3.688,5.395-6.875,7.527-8,4.617-2.459,9.234.125,14,7.8,1.731,2.76,7.1,13.2,8.381,16.259,3.187,7.653,3.086,14.8-.251,18.166-2.233,2.233-4.567,3.036-9.409,3.262-3.387.151-3.513.176-3.588.7-.125.778.7.928,3.814.753,4.491-.276,7.7-1.48,9.861-3.638,4.04-4.04,4.341-11.266.8-19.621-1.631-3.839-7.4-14.9-9.209-17.664A22.92,22.92,0,0,0,27.52.946,6.779,6.779,0,0,0,23.882.018,6.534,6.534,0,0,0,20.871.369Z" transform="translate(-0.004 -0.003)" fill="#fa5a60" fill-rule="evenodd"/>
        <path id="Path_1592" data-name="Path 1592" d="M50.186,49.378c-.477.9.627,3.714,1.857,4.742.527.427.5.878-.025,1.3a14.184,14.184,0,0,0-3.061,4.792,24.309,24.309,0,0,0-.753,4.215A15.551,15.551,0,0,1,46.3,71.258a3.469,3.469,0,0,0-.627,1.38c0,.251.577.928,1.255,1.531,1.079.928,1.3,1.054,1.781.8.577-.326.6-.276-.953-2.032l-.577-.627.753-1.38a17.021,17.021,0,0,0,1.631-6.75c.251-3.362.8-4.792,2.81-7.176a14.244,14.244,0,0,0,1.355-1.932c.276-.6.226-.753-.6-1.656-.9-1-1.556-2.032-1.3-2.032a6.09,6.09,0,0,1,1.2.728,8.11,8.11,0,0,0,4.642,1.656c2.936.427,4.165.828,5.9,1.982A9.846,9.846,0,0,1,67.776,63.1a9.083,9.083,0,0,1-1.28,6.348,56.335,56.335,0,0,1-4.818,5.144c-4.717,4.617-5.7,6.072-5.922,8.807-.125,1.606-.125,1.606.552,1.606.6,0,.652-.1.652-.979,0-2.509,1.029-3.99,6.348-9.309,4.843-4.843,5.7-6.2,5.9-9.359A11.852,11.852,0,0,0,58.818,52.615c-3.638-.5-4.266-.753-6.7-2.911C51.04,48.751,50.563,48.685,50.186,49.378Z" transform="translate(-34.212 -36.642)" fill="#fa5a60" fill-rule="evenodd"/>
        <path id="Path_1593" data-name="Path 1593" d="M77.692,93.234c-.251.3-.151.6.5,1.656,1.1,1.681,1.28,3.312.5,4.316a7.919,7.919,0,0,1-2.233,1.505c-1.681.8-4.792,3.563-4.792,4.291,0,.527,1.079.7,1.355.226a9.509,9.509,0,0,1,3.739-3.212c2.032-1.054,2.81-1.706,3.337-2.685.728-1.405.251-3.739-1.179-5.746C78.344,92.757,78.144,92.707,77.692,93.234Z" transform="translate(-53.688 -69.584)" fill="#fa5a60" fill-rule="evenodd"/>
      </g>
    </g>
  </g>
</svg>
