<svg xmlns="http://www.w3.org/2000/svg" xmlns:xlink="http://www.w3.org/1999/xlink" width="388.888" height="281.07" viewBox="0 0 388.888 281.07">
  <defs>
    <linearGradient id="linear-gradient" x1="0.5" y1="1" x2="0.5" gradientUnits="objectBoundingBox">
      <stop offset="0" stop-color="gray" stop-opacity="0.251"/>
      <stop offset="0.54" stop-color="gray" stop-opacity="0.122"/>
      <stop offset="1" stop-color="gray" stop-opacity="0.102"/>
    </linearGradient>
  </defs>
  <g id="stripe_payments" transform="translate(-0.001 -12.384)">
    <path id="Path_40095" data-name="Path 40095" d="M260.954,103.574c-24.931-.884-48.678-9.131-71.351-18.151s-45.136-19.018-69.468-23.8c-15.652-3.073-33.552-3.507-46.162,5.087C61.834,74.971,57.915,89.267,55.808,102.5c-1.587,9.981-2.519,20.46,1.824,29.794,3.018,6.48,8.377,11.925,12.083,18.13,12.889,21.6,3.786,48.227-10.194,69.313-6.539,9.891-14.155,19.328-19.211,29.856s-7.4,22.594-2.974,33.335c4.388,10.648,14.837,18.643,26.156,24.267,22.993,11.426,50.089,14.7,76.51,16.547,58.486,4.1,117.286,2.323,175.927.547,21.7-.661,43.5-1.325,64.85-4.763,11.853-1.91,24.091-4.939,32.7-12.255,10.927-9.292,13.636-25.01,6.312-36.653-12.269-19.524-46.227-24.37-54.811-45.336-4.725-11.536.127-24.387,6.993-35.1,14.73-22.952,39.42-43.089,40.721-69.327.895-18.02-10.975-36.068-29.326-44.593-19.238-8.948-45.911-7.812-60.1,6.98C308.647,98.5,282.966,104.359,260.954,103.574Z" transform="translate(-35 -47.228)" fill="#fa5a60" opacity="0.1"/>
    <ellipse id="Ellipse_227" data-name="Ellipse 227" cx="31.852" cy="4.777" rx="31.852" ry="4.777" transform="translate(201.773 283.899)" fill="#fa5a60" opacity="0.1"/>
    <path id="Path_40098" data-name="Path 40098" d="M527.605,759.754l-61.325-.785.182-1.573,2.963-25.946h53.857l3.961,25.946.3,1.965Z" transform="translate(-305.806 -479.695)" fill="#d0d2d5"/>
    <path id="Path_40099" data-name="Path 40099" d="M527.547,808.805h-30.6l-30.664-.392.182-1.573h60.782Z" transform="translate(-305.806 -529.139)" opacity="0.1"/>
    <rect id="Rectangle_1602" data-name="Rectangle 1602" width="81.376" height="1.965" transform="translate(150.253 278.093)" fill="#d0d2d5"/>
    <path id="Path_40100" data-name="Path 40100" d="M481.141,292.535a5.118,5.118,0,0,0-5.094-5.145H248.793a5.121,5.121,0,0,0-5.094,5.145V430.288H481.141Z" transform="translate(-171.874 -196.615)" fill="#444053"/>
    <path id="Path_40101" data-name="Path 40101" d="M243.7,698.6v16.134a5.094,5.094,0,0,0,5.094,5.094H476.048a5.09,5.09,0,0,0,5.094-5.094V698.6Z" transform="translate(-171.874 -466.304)" fill="#d0d2d5"/>
    <rect id="Rectangle_1603" data-name="Rectangle 1603" width="218.964" height="123.831" transform="translate(81.655 99.424)" fill="#fff"/>
    <path id="Path_40102" data-name="Path 40102" d="M582.064,722.352a5.311,5.311,0,0,0,4.175-2.028h0a5.253,5.253,0,0,0,.413-.609l-2.9-.482,3.149.024a5.314,5.314,0,0,0,.1-4.206l-4.223,2.192,3.9-2.863a5.307,5.307,0,1,0-8.773,5.94h0A5.31,5.31,0,0,0,582.064,722.352Z" transform="translate(-390.337 -474.947)" fill="#fa5a60"/>
    <path id="Path_40103" data-name="Path 40103" d="M572.51,736.59l24.466,24.569-3.755-24.569Z" transform="translate(-375.476 -483.066)" opacity="0.1"/>
    <rect id="Rectangle_1604" data-name="Rectangle 1604" width="219.201" height="7.234" transform="translate(81.483 99.438)" fill="#444053" opacity="0.1"/>
    <rect id="Rectangle_1605" data-name="Rectangle 1605" width="6.291" height="4.402" rx="0.78" transform="translate(82.74 100.697)" fill="#fa5a60"/>
    <rect id="Rectangle_1606" data-name="Rectangle 1606" width="66.044" height="4.402" rx="0.58" transform="translate(157.59 100.697)" fill="#fa5a60" opacity="0.3"/>
    <path id="Path_40104" data-name="Path 40104" d="M674.306,319.733h-.162l-.058-.048a1.356,1.356,0,0,0,.313-.857,1.3,1.3,0,1,0-1.3,1.311,1.377,1.377,0,0,0,.854-.313l.059.048v.162l1.008,1.008.3-.3Zm-1.2,0a.909.909,0,1,1,.905-.905.9.9,0,0,1-.905.905Z" transform="translate(-452.633 -216.382)" fill="#444053"/>
    <circle id="Ellipse_228" data-name="Ellipse 228" cx="2.203" cy="2.203" r="2.203" transform="translate(295.336 100.694)" fill="#fa5a60"/>
    <path id="Path_40105" data-name="Path 40105" d="M532.845,413.74H432.485a6.1,6.1,0,0,0-6.295,5.871v55.244a6.1,6.1,0,0,0,6.295,5.871h100.36a6.1,6.1,0,0,0,6.295-5.871V419.611A6.1,6.1,0,0,0,532.845,413.74Z" transform="translate(-291.558 -279.48)" opacity="0.1"/>
    <rect id="Rectangle_1607" data-name="Rectangle 1607" width="105.34" height="66.987" rx="18.67" transform="translate(138.469 131.114)" fill="#454b69"/>
    <rect id="Rectangle_1608" data-name="Rectangle 1608" width="16.747" height="5.682" rx="2.841" transform="translate(149.534 168.792)" fill="#fa5a60" opacity="0.3"/>
    <rect id="Rectangle_1609" data-name="Rectangle 1609" width="16.747" height="5.682" rx="2.841" transform="translate(171.962 168.792)" fill="#fa5a60" opacity="0.3"/>
    <rect id="Rectangle_1610" data-name="Rectangle 1610" width="14.654" height="4.185" rx="2.092" transform="translate(181.231 180.456)" fill="#fa5a60" opacity="0.3"/>
    <rect id="Rectangle_1611" data-name="Rectangle 1611" width="16.747" height="5.682" rx="2.841" transform="translate(194.391 168.792)" fill="#fa5a60" opacity="0.3"/>
    <rect id="Rectangle_1612" data-name="Rectangle 1612" width="16.747" height="5.682" rx="2.841" transform="translate(216.82 168.792)" fill="#fa5a60" opacity="0.3"/>
    <rect id="Rectangle_1613" data-name="Rectangle 1613" width="11.364" height="11.364" rx="2.95" transform="translate(151.027 155.336)" fill="#fa5a60"/>
    <path id="Path_40106" data-name="Path 40106" d="M488.936,490.086H485.35V486.5h3.586Zm-3.442-.148h3.29v-3.29h-3.29Z" transform="translate(-330.358 -327.199)" fill="#454b69"/>
    <rect id="Rectangle_1614" data-name="Rectangle 1614" width="0.148" height="4.037" transform="translate(156.709 155.336)" fill="#454b69"/>
    <rect id="Rectangle_1615" data-name="Rectangle 1615" width="0.148" height="3.889" transform="translate(156.709 162.811)" fill="#454b69"/>
    <rect id="Rectangle_1616" data-name="Rectangle 1616" width="4.037" height="0.148" transform="translate(151.027 160.942)" fill="#454b69"/>
    <rect id="Rectangle_1617" data-name="Rectangle 1617" width="3.889" height="0.148" transform="translate(158.506 160.942)" fill="#454b69"/>
    <path id="Path_40107" data-name="Path 40107" d="M442.815,460.668l-1.174-1.167H438.83v-.151H441.7l1.218,1.211Z" transform="translate(-287.803 -301.24)" fill="#454b69"/>
    <path id="Path_40108" data-name="Path 40108" d="M460.51,460.668l-.1-.11,1.366-1.208h2.571v.151h-2.512Z" transform="translate(-301.956 -301.24)" fill="#454b69"/>
    <path id="Path_40109" data-name="Path 40109" d="M441.707,474.374H438.83v-.151h2.808l1.174-1.353.114.1Z" transform="translate(-287.803 -310.107)" fill="#454b69"/>
    <path id="Path_40096" data-name="Path 40096" d="M2.151,9.5c-.093-.32.133-.519.567-.646a4.761,4.761,0,0,1,2.19-.069L4.345,6.855A5.626,5.626,0,0,0,2.2,7.071C.537,7.557-.316,8.749.108,10.2c.658,2.267,3.667.994,3.953,1.969.11.375-.181.6-.641.73a5.344,5.344,0,0,1-2.43,0l.57,1.951a5.915,5.915,0,0,0,2.377-.188c1.705-.5,2.631-1.685,2.2-3.152C5.418,9.07,2.422,10.416,2.153,9.5Zm4.415-5.48L4.689,5.027,6.6,11.6a2.146,2.146,0,0,0,2.739,1.487,3.316,3.316,0,0,0,1.356-.688l-.485-1.664c-.231.183-1.417.938-1.771-.275L7.59,7.545,9.148,7.09l-.51-1.747L7.08,5.8Zm4.8,1.189-.308-.569-1.771.517,2.094,7.175,2.05-.6L12.007,6.868a1.505,1.505,0,0,1,1.433-.881L12.89,4.1a1.45,1.45,0,0,0-1.528,1.1ZM13.39,3.954l2.058-.6,2.094,7.174-2.058.6L13.39,3.959Zm-.181-.626,1.929-1.043L14.651.624,12.72,1.66l.489,1.673Zm6.478-1.363a2.412,2.412,0,0,0-1.42,1.109L18.012,2.6l-1.8.527L19,12.684l1.923-1.03L20.253,9.33a2.418,2.418,0,0,0,1.6.093c1.468-.429,2.46-2,1.7-4.6-.7-2.377-2.434-3.276-3.869-2.857Zm1.157,5.793a1.276,1.276,0,0,1-1.08-.1l-.9-3.04a1.279,1.279,0,0,1,.859-.688c.746-.218,1.506.467,1.82,1.541.321,1.1.052,2.064-.7,2.287Zm9.2-4.738C29.427.921,27.927-.438,25.984.129S23.335,2.7,23.943,4.782c.721,2.466,2.477,3.3,4.479,2.721a4.762,4.762,0,0,0,2.116-1.2l-.479-1.64a4.516,4.516,0,0,1-1.877,1.037,1.418,1.418,0,0,1-1.954-.782l4.008-1.17c-.031-.106-.139-.537-.2-.734Zm-4.278.4a1.187,1.187,0,0,1,.7-1.627c.5-.146,1.145.084,1.416,1.01Z" transform="matrix(0.966, 0.259, -0.259, 0.966, 171.612, 149.477)" opacity="0.1"/>
    <path id="Path_40097" data-name="Path 40097" d="M2.151,9.5c-.093-.32.133-.519.567-.646a4.761,4.761,0,0,1,2.19-.069L4.345,6.855A5.626,5.626,0,0,0,2.2,7.071C.537,7.557-.316,8.749.108,10.2c.658,2.267,3.666.994,3.953,1.969.11.375-.181.6-.641.73a5.344,5.344,0,0,1-2.43,0l.57,1.951a5.915,5.915,0,0,0,2.377-.188c1.705-.5,2.631-1.685,2.2-3.152C5.418,9.07,2.422,10.416,2.153,9.5Zm4.415-5.48L4.689,5.027,6.6,11.6a2.146,2.146,0,0,0,2.739,1.487,3.316,3.316,0,0,0,1.356-.688l-.485-1.664c-.231.183-1.417.938-1.771-.275L7.59,7.545,9.148,7.09l-.51-1.747L7.08,5.8Zm4.8,1.189-.308-.569-1.771.517,2.094,7.175,2.05-.6L12.007,6.868a1.505,1.505,0,0,1,1.433-.881L12.89,4.1a1.45,1.45,0,0,0-1.528,1.1ZM13.39,3.954l2.058-.6,2.094,7.174-2.058.6L13.39,3.959Zm-.181-.626,1.929-1.043L14.651.624,12.72,1.66l.489,1.673Zm6.478-1.363a2.412,2.412,0,0,0-1.42,1.109L18.012,2.6l-1.8.527L19,12.683l1.923-1.03L20.253,9.33a2.418,2.418,0,0,0,1.6.093c1.468-.429,2.46-2,1.7-4.6-.7-2.377-2.434-3.276-3.869-2.857Zm1.157,5.793a1.276,1.276,0,0,1-1.08-.1l-.9-3.04a1.279,1.279,0,0,1,.859-.688c.746-.218,1.506.467,1.82,1.541.321,1.1.052,2.064-.7,2.287Zm9.2-4.738C29.427.921,27.927-.438,25.984.129S23.335,2.7,23.943,4.782c.721,2.466,2.477,3.3,4.479,2.721a4.762,4.762,0,0,0,2.116-1.2l-.479-1.64a4.516,4.516,0,0,1-1.877,1.037,1.418,1.418,0,0,1-1.954-.782l4.008-1.17c-.031-.106-.139-.537-.2-.734Zm-4.278.4a1.187,1.187,0,0,1,.7-1.627c.5-.146,1.145.084,1.416,1.01Z" transform="matrix(0.966, 0.259, -0.259, 0.966, 171.742, 148.994)" fill="#fa5a60"/>
    <path id="Path_40110" data-name="Path 40110" d="M464.341,474.367h-2.574l-1.366-1.4.107-.107,1.325,1.356h2.509Z" transform="translate(-301.949 -310.101)" fill="#454b69"/>
    <rect id="Rectangle_1618" data-name="Rectangle 1618" width="31.848" height="5.682" rx="2.841" transform="translate(149.458 136.273)" fill="#fa5a60"/>
    <path id="Path_40111" data-name="Path 40111" d="M649.765,547.087c-.021-.592-.093-1.184-.165-1.772-.265-2.21-.537-4.419-.967-6.6a7,7,0,0,0-.344-1.246c-.155-.382-.368-.733-.53-1.112a.191.191,0,0,0,0-.041c.2-.1.4-.193.589-.3a2.946,2.946,0,0,0,.4-.244,1.13,1.13,0,0,0,.313-.344c.344-.606-.041-1.377-.217-2.065h0c-.186-.74-.145-1.628-.688-2.123-1.941-1.721-.977-5.231-1.948-7.7-.172-.43-.368-.854-.516-1.294-.114-.344-.193-.688-.275-1.032q-1.033-4.3-2.175-8.566c-.8-2.946-.716-6.016-1.721-8.893a9.565,9.565,0,0,0-.74-1.721,4.618,4.618,0,0,0-1.335-1.442,13.059,13.059,0,0,0-4.663-2.244,25.345,25.345,0,0,0-5.334-.3,5.651,5.651,0,0,0-2.492-1.945l-.031-.089a6.163,6.163,0,0,1-.323-1.077,7.351,7.351,0,0,1-.086-1.1c0-.4-.017-.8-.028-1.191l.1-.093a6.664,6.664,0,0,0,.633-.778,5.446,5.446,0,0,0,.482-.823,7.639,7.639,0,0,0,.392-1.008,11.354,11.354,0,0,0,.423-2.137c.093-.85.12-1.721.145-2.571v-1.1a4.635,4.635,0,0,0-.64-2.505,5.187,5.187,0,0,0-2.719-1.748c-2.065-.716-4.333-1.187-6.374-.42-1.621.613-2.915,1.948-4.515,2.626h0a1.994,1.994,0,0,1,.1.189.207.207,0,0,1,0,.028c.028.062.052.12.072.182h0a2.258,2.258,0,0,1,.114.43h0a2.548,2.548,0,0,1,0,.84,2.871,2.871,0,0,1-1.542.227,4.9,4.9,0,0,0,.971,1.762c.141.179.289.344.43.533l.217.268a5.584,5.584,0,0,1,.891,1.442,2.811,2.811,0,0,1,.169.644c.065.437.048.94.107,1.377a2.1,2.1,0,0,0,.141.547,5.765,5.765,0,0,0,3.056,4.292,12.665,12.665,0,0,1,0,4.109,1.065,1.065,0,0,1-.045.227,20.184,20.184,0,0,1-2.987,3.349,10.869,10.869,0,0,1-1.676,1.081,4.6,4.6,0,0,1-1.1.458c-.434.1-.888.086-1.318.193a3.442,3.442,0,0,0-1.958,1.593,11.5,11.5,0,0,1-.723,1.163c-.241.3-.544.544-.8.829a7.356,7.356,0,0,0-1.377,3.923,17.968,17.968,0,0,1-2.351,2.172,3.442,3.442,0,0,1-.874.506,2.724,2.724,0,0,1-2.409-.6c-.706-.523-1.256-1.211-1.938-1.748l-.179.265a1.434,1.434,0,0,1-.141-.162,3.441,3.441,0,0,1-.568-1.315c-.248-1.27.22-2.629-.145-3.865-.134-.447-.458-.909-.905-.9s-.726.458-1.112.668a2.118,2.118,0,0,1-1.989-.31,2.688,2.688,0,0,0-1.982-.52,1.408,1.408,0,0,0,.513,1.17,3.122,3.122,0,0,1,.833,1.008,4.556,4.556,0,0,1,.114,1.3,5.167,5.167,0,0,0,1.287,2.653q1.115,1.428,2.333,2.774h0a.86.86,0,0,1-.434.375.912.912,0,0,0,0,.5,2.032,2.032,0,0,0,.131.327c.079.162.176.32.258.468l1.208,2.123.2.344c.083.145.165.282.251.423a7.8,7.8,0,0,0,1.008,1.377,4.125,4.125,0,0,0,.633.544,3.288,3.288,0,0,0,.471.282,2.755,2.755,0,0,0,.73.251,2.284,2.284,0,0,0,.379.048,2.55,2.55,0,0,0,.4,0,5.279,5.279,0,0,0,1.16-.3,58,58,0,0,0,6.6-3.2,3.679,3.679,0,0,1,.96-.372,1.572,1.572,0,0,1,.344-.028,1.265,1.265,0,0,1,.344.058,1.246,1.246,0,0,1,.31.155.891.891,0,0,1,.375.557c.065.344.127.664.189.995s.131.661.2.991c.138.657.286,1.315.458,1.965.093.344.182.709.272,1.067.22.874.437,1.755.637,2.636.062.275.12.554.176.829a12.743,12.743,0,0,1,.22,1.483.135.135,0,0,1,0,.034c.034.434.038.864.041,1.3v1.359l.034,4.013a3.306,3.306,0,0,1-.554,1.459c-.048.107-.093.217-.131.327h0a3.709,3.709,0,0,0-.114.427.971.971,0,0,1-.028.138.666.666,0,0,1-.021.158c-.021.052,0,.1-.017.151a.447.447,0,0,0,0,.151v.613c0,.041.024.134.034.2l.021.1c.024.1.048.2.083.3.069.206.155.41.244.609s.179.4.255.609a4.13,4.13,0,0,1,.124.4.892.892,0,0,1,.021.093c.028.107.052.213.072.323v.076c.021.117.038.237.052.344a.17.17,0,0,1,0,.041c0,.134.028.268.034.4h0a13.256,13.256,0,0,1,0,1.48l-.041,2.45v.076h0a.43.43,0,0,0,.048.22.268.268,0,0,0,.231.124.875.875,0,0,0,.478-.186l1.094-.795h.069a10.679,10.679,0,0,0-1.69,4.636,14.8,14.8,0,0,0,.21,3.28c1.008,7.227,3.383,14.52,2.884,21.816-.2,2.874.995,5.675.988,8.552,0,1.119-.189,2.227-.237,3.342-.21,4.791,2.234,9.636,1.239,14.317.344,1.163,1.648,1.783,2.017,2.939a4.708,4.708,0,0,1-.5,2.984,6.081,6.081,0,0,0-.3,1.032,8.338,8.338,0,0,0-2.781.3,4.14,4.14,0,0,0-.54.22,1.493,1.493,0,0,0-.268,1.986,16.253,16.253,0,0,0,3.214,2.874l1.4.688a8.4,8.4,0,0,0,2.409.909,8.234,8.234,0,0,0,2.137-.041,2.105,2.105,0,0,0,1.507-.6c.5-.633.244-1.662-.1-2.578a.92.92,0,0,0,.282-.382,3.055,3.055,0,0,0,.093-.733,5.51,5.51,0,0,1,.489-1.377,11.166,11.166,0,0,0,.516-4.5,52.22,52.22,0,0,0-.509-7.41c-.172-1.032-.406-2.065-.606-3.1a51.253,51.253,0,0,1-.94-11.357,9.091,9.091,0,0,0-.382-2.733,4.909,4.909,0,0,1-.09-1.559L628,573a25.3,25.3,0,0,0,.058-3.855c-.058-.688-.172-1.377-.241-2.065a31.419,31.419,0,0,1-.065-3.944,7.274,7.274,0,0,1,.912-4.068.633.633,0,0,1,.385-.3c.165-.024.213.2.151.344.086.262.176.52.265.781.028.076.052.148.079.22.045.134.093.268.141.4s.069.186.1.279l.134.344c.038.1.079.2.117.3s.086.217.131.323.089.213.138.32.083.2.127.3l.165.344c.041.086.083.176.127.262s.134.251.2.375c.038.072.076.145.117.213.11.193.224.379.344.564h0c.234.344.485.688.688,1.057a3.506,3.506,0,0,1,.193.375,9.278,9.278,0,0,1,.451,1.466c.12.454.262.9.416,1.335s.344.874.513,1.3c.093.213.189.427.286.637.289.637.6,1.263.919,1.883a1.754,1.754,0,0,1,.131.344,1.6,1.6,0,0,1,.038.175,1.571,1.571,0,0,1,0,.344,1.443,1.443,0,0,1-.028.213,1.608,1.608,0,0,1-.093.31,4.627,4.627,0,0,0,.1,2.87,18.15,18.15,0,0,1,.234,3.029c0,.344,0,.688.031,1.008,0,.42,0,.836.024,1.256s0,.9.024,1.353a11.787,11.787,0,0,1-.055,1.353,3.061,3.061,0,0,1-.065.468c-.076.465-.182.926-.275,1.377a27.371,27.371,0,0,0-.475,5.506q0,1.112.072,2.227c.041.747.1,1.49.165,2.237.034.41.076.819.117,1.229.069.709.145,1.418.22,2.127s.158,1.49.231,2.23.138,1.48.189,2.216a1.855,1.855,0,0,1-.22,1.053,2.361,2.361,0,0,0-.172.4,2.157,2.157,0,0,0-.076.292,3.09,3.09,0,0,0-.041.344,3.922,3.922,0,0,0,.041.723q.028.179.062.344c.052.237.114.475.176.709a7.133,7.133,0,0,0,.688,1.858,2.748,2.748,0,0,0,.227.344c.024.034.052.065.079.1a2.487,2.487,0,0,1,.2.262.838.838,0,0,1,.072.134,1.056,1.056,0,0,1,.041.6c-.038.206-.11.413-.165.609h0l.179.024A2.365,2.365,0,0,0,636.59,614a2.088,2.088,0,0,0,1.507.6,8.089,8.089,0,0,0,2.137.045,8.4,8.4,0,0,0,2.409-.909l1.4-.688a15.73,15.73,0,0,0,3.211-2.877,1.493,1.493,0,0,0-.265-1.982,3.885,3.885,0,0,0-.54-.224,7.91,7.91,0,0,0-2.557-.3c-.048-.344-.076-.719-.089-1.074a29.681,29.681,0,0,1,.076-3.951c.079-.933.2-1.862.189-2.795a34.71,34.71,0,0,0-.392-3.717c-.134-1.239-.148-2.45-.169-3.676a36.514,36.514,0,0,1,.73-5.3l.4-3.135a3.814,3.814,0,0,0,.028-1.153c-.062-.344-.22-.688-.286-1.032a7.572,7.572,0,0,1,.323-2.344,9.907,9.907,0,0,0-.2-2.733,35.53,35.53,0,0,1-.237-4.323c-.124-8.879-.375-17.958-3.376-26.266-.12-.344-.251-.688-.385-1.008a1.785,1.785,0,0,0,.179-.059,1.206,1.206,0,0,0,.265-.138.73.73,0,0,0,.1-.076.8.8,0,0,0,.2-.344,1.3,1.3,0,0,0,.062-.389,2.768,2.768,0,0,0-.1-.688l-.041-.141c-.069-.234-.145-.465-.224-.688h0c-.076-.224-.158-.44-.244-.661a8.045,8.045,0,0,1-.434-1.263c-.21-.977,0-2.106-.589-2.9-1.3-1.783-.382-4.522-.926-6.694-.179-.688-.44-1.377-.606-2.065-.1-.441-.169-.891-.234-1.342a16.722,16.722,0,0,1-.255-2.953,12.628,12.628,0,0,1,.134-1.483l.413-3.414a10.189,10.189,0,0,1,.977,2.808c.031.141.059.279.089.42a49.7,49.7,0,0,0,1.377,4.983c.313.988.623,1.972.96,2.949.1.279.2.561.286.847a6.814,6.814,0,0,1,.206.871c.038.234.055.475.072.712s.031.482.055.719a6.773,6.773,0,0,0,1,2.86c.017.022.033.045.048.069a.812.812,0,0,0,.42.365h0a.923.923,0,0,0,.375,0h.021c.182-.038.365-.079.544-.124a.683.683,0,0,0,.079-.021c.083,1.067.4,2.13.427,3.208a18.227,18.227,0,0,1-.905,4.584,29.207,29.207,0,0,0-.616,4.206,1.862,1.862,0,0,0,.052.84.6.6,0,0,0,.626.423.757.757,0,0,0,.444-.4,3.142,3.142,0,0,0,.382-2.268c.327.069.5.444.575.785a4.715,4.715,0,0,1-.145,2.664c-.2.571-.516,1.1-.688,1.686a.881.881,0,0,0,0,.564c.172.4.716.368,1.108.224a5.572,5.572,0,0,0,2.922-2.753,8.439,8.439,0,0,0,.857-4Z" transform="translate(-400.666 -322.331)" fill="url(#linear-gradient)"/>
    <path id="Path_40112" data-name="Path 40112" d="M678.8,862.021a2.249,2.249,0,0,1-1.569.592,8.946,8.946,0,0,1-2.227.041,9.083,9.083,0,0,1-2.5-.9l-1.459-.688A16.3,16.3,0,0,1,667.7,858.2a1.433,1.433,0,0,1,.275-1.972,4.474,4.474,0,0,1,.564-.22c1.074-.427,3.249-.21,4.391-.375a3.043,3.043,0,0,1,1.624.382c1.129.5,3.118.895,3.61,2.165C678.545,859.158,679.592,861.054,678.8,862.021Z" transform="translate(-449.776 -569.291)" fill="#2f2e41"/>
    <path id="Path_40113" data-name="Path 40113" d="M723.432,859.274a2.249,2.249,0,0,0,1.569.592,6.718,6.718,0,0,0,4.725-.864l1.459-.688a16.226,16.226,0,0,0,3.345-2.863,1.43,1.43,0,0,0-.279-1.972,3.78,3.78,0,0,0-.561-.22c-1.074-.427-3.249-.21-4.391-.375a3.033,3.033,0,0,0-1.628.382c-1.125.5-3.1.895-3.607,2.165C723.673,856.411,722.623,858.307,723.432,859.274Z" transform="translate(-486.306 -567.487)" fill="#2f2e41"/>
    <path id="Path_40114" data-name="Path 40114" d="M685.529,665.866a17.376,17.376,0,0,1,.919,2.093c3.125,8.26,3.387,17.3,3.517,26.132a33.185,33.185,0,0,0,.244,4.3,9.213,9.213,0,0,1,.2,2.722,7.494,7.494,0,0,0-.344,2.327c.065.344.231.688.3,1.032a3.565,3.565,0,0,1-.031,1.146l-.417,3.118a34.939,34.939,0,0,0-.761,5.276c.021,1.222.041,2.443.176,3.658a36.24,36.24,0,0,1,.41,3.7c0,.929-.117,1.855-.2,2.781a28.792,28.792,0,0,0-.079,3.93,6.09,6.09,0,0,0,.688,2.915A5.445,5.445,0,0,1,688,733.056c-1.951.854-4.192.564-6.3.258a1.774,1.774,0,0,0,.127-1.2,2.263,2.263,0,0,0-.361-.492,5.853,5.853,0,0,1-.94-2.182,3.627,3.627,0,0,1,0-2.826,1.789,1.789,0,0,0,.231-1.032c-.437-5.851-1.741-11.922-.54-17.672a18.772,18.772,0,0,0,.344-1.848,22.626,22.626,0,0,0,.034-2.691l.014-1.284a25.305,25.305,0,0,0-.275-4.016,4.441,4.441,0,0,1-.107-2.857,1.566,1.566,0,0,0-.065-1.377,25.469,25.469,0,0,1-2.223-5.131,8.9,8.9,0,0,0-.468-1.459,10.356,10.356,0,0,0-.922-1.421,21.509,21.509,0,0,1-2.285-5.011c.065-.162,0-.382-.155-.344a.647.647,0,0,0-.4.3,6.973,6.973,0,0,0-.95,4.047,29.848,29.848,0,0,0,.069,3.923c.069.688.189,1.377.251,2.065a24.184,24.184,0,0,1-.062,3.834l-.423,6.243a4.5,4.5,0,0,0,.089,1.552,8.684,8.684,0,0,1,.4,2.715,48.826,48.826,0,0,0,.991,11.281c.206,1.032.451,2.044.63,3.073a50.281,50.281,0,0,1,.53,7.372,10.55,10.55,0,0,1-.537,4.474,5.127,5.127,0,0,0-.509,1.377,2.847,2.847,0,0,1-.1.73,1.488,1.488,0,0,1-1.174.747,9.548,9.548,0,0,1-2.708.193,1.517,1.517,0,0,1-.616-.138c-.344-.175-.516-.547-.774-.826-.554-.606-1.476-.792-1.982-1.439a3.066,3.066,0,0,1,0-2.943,4.548,4.548,0,0,0,.516-2.97c-.382-1.146-1.721-1.766-2.1-2.922,1.032-4.66-1.507-9.478-1.291-14.245.052-1.112.244-2.213.248-3.325,0-2.863-1.229-5.651-1.032-8.508.52-7.258-1.955-14.506-3-21.71a14.017,14.017,0,0,1-.22-3.259,10.837,10.837,0,0,1,2-4.983,6.747,6.747,0,0,1,2.784-2.636,7.905,7.905,0,0,1,3.152-.406c2.664.021,5.328.041,7.991.09a26.283,26.283,0,0,1,5.4.482C682.717,664.985,684.066,665.656,685.529,665.866Z" transform="translate(-444.855 -443.667)" fill="#2f2e41"/>
    <g id="Group_3099" data-name="Group 3099" transform="translate(229.478 236.779)" opacity="0.1">
      <path id="Path_40115" data-name="Path 40115" d="M701.986,711.926a.657.657,0,0,1,.4-.3c.172-.024.224.2.158.344a21.335,21.335,0,0,0,2.282,5.011,10.056,10.056,0,0,1,.926,1.421,9.243,9.243,0,0,1,.468,1.459,25.64,25.64,0,0,0,2.22,5.131,1.556,1.556,0,0,1,.065,1.377,4.418,4.418,0,0,0,.11,2.857,26.58,26.58,0,0,1,.275,4.016c0,.416,0,.833.024,1.249a21.927,21.927,0,0,1-.031,2.691c-.072.623-.224,1.235-.344,1.848-1.2,5.751.1,11.811.54,17.673a1.786,1.786,0,0,1-.227,1.032,3.51,3.51,0,0,0,0,2.826,5.754,5.754,0,0,0,.94,2.182,2.514,2.514,0,0,1,.344.492,1.7,1.7,0,0,1-.131,1.2,26.545,26.545,0,0,0,2.815.3,20.366,20.366,0,0,1-3.652-.3,1.774,1.774,0,0,0,.127-1.2,2.266,2.266,0,0,0-.361-.492,5.851,5.851,0,0,1-.94-2.182,3.627,3.627,0,0,1,0-2.826,1.789,1.789,0,0,0,.231-1.032c-.437-5.851-1.741-11.922-.54-17.673a18.771,18.771,0,0,0,.344-1.848,22.628,22.628,0,0,0,.034-2.691c0-.416-.017-.833-.028-1.249a25.3,25.3,0,0,0-.275-4.016,4.44,4.44,0,0,1-.107-2.857,1.566,1.566,0,0,0-.065-1.377,25.472,25.472,0,0,1-2.223-5.131,9.241,9.241,0,0,0-.468-1.459,10.345,10.345,0,0,0-.922-1.421,19.975,19.975,0,0,1-2.2-4.773A3.463,3.463,0,0,0,701.986,711.926Z" transform="translate(-701.78 -711.625)"/>
    </g>
    <path id="Path_40116" data-name="Path 40116" d="M597.081,563.663c-.258-1.263.231-2.616-.151-3.844-.138-.444-.475-.905-.94-.895s-.757.454-1.156.664a2.276,2.276,0,0,1-2.065-.306,2.915,2.915,0,0,0-2.065-.52,1.366,1.366,0,0,0,.537,1.163,3.2,3.2,0,0,1,.864,1,4.39,4.39,0,0,1,.12,1.3,4.86,4.86,0,0,0,1.339,2.64,47.232,47.232,0,0,0,3.245,3.6,13.4,13.4,0,0,0,1.7-2.523c-.024-.375-.613-.688-.826-.971A3.293,3.293,0,0,1,597.081,563.663Z" transform="translate(-399.444 -374.555)" fill="#a1616a"/>
    <path id="Path_40117" data-name="Path 40117" d="M750.061,645.975a6.682,6.682,0,0,1,.344,1.239c.447,2.168.73,4.367,1.008,6.563.072.585.148,1.174.169,1.762a8.043,8.043,0,0,1-.836,4.058,5.676,5.676,0,0,1-3.039,2.753c-.406.145-.974.172-1.153-.22a.847.847,0,0,1,0-.561c.162-.585.489-1.112.688-1.68a4.525,4.525,0,0,0,.151-2.65c-.083-.344-.258-.712-.6-.781a3.011,3.011,0,0,1-.4,2.258.781.781,0,0,1-.461.392.623.623,0,0,1-.654-.42,1.8,1.8,0,0,1-.052-.836,28.136,28.136,0,0,1,.64-4.185,17.241,17.241,0,0,0,.94-4.56c-.034-1.411-.6-2.8-.437-4.2a.344.344,0,0,1,.255-.344,9.292,9.292,0,0,1,1.215-.4c.244-.062,1.077-.344,1.311-.22s.248.733.344.946C749.679,645.242,749.9,645.593,750.061,645.975Z" transform="translate(-500.78 -430.435)" fill="#a1616a"/>
    <circle id="Ellipse_229" data-name="Ellipse 229" cx="5.765" cy="5.765" r="5.765" transform="translate(215.664 162.195)" fill="#a1616a"/>
    <path id="Path_40118" data-name="Path 40118" d="M674.774,518.33a6.5,6.5,0,0,0,.086,1.1,5.857,5.857,0,0,0,.344,1.07,6.244,6.244,0,0,0,.805,1.583,2.357,2.357,0,0,0,1.459.95,41.456,41.456,0,0,1-12.469,3.6,5.258,5.258,0,0,0,1.652-1.766,4.986,4.986,0,0,0,.437-1.435,12.045,12.045,0,0,0-.54-6.219c-.072-.193-.141-.434,0-.6a.588.588,0,0,1,.206-.131,12.806,12.806,0,0,1,5.417-1.012c.475,0,.95.024,1.425.059.255.021.816-.034,1.032.151s.12.915.127,1.215Z" transform="translate(-448.18 -346.2)" fill="#a1616a"/>
    <path id="Path_40119" data-name="Path 40119" d="M638.23,531.478a6.174,6.174,0,0,0-7.379-1.838c-2.753,1.311-4.1,4.474-6.508,6.3a11.357,11.357,0,0,1-1.748,1.077,4.878,4.878,0,0,1-1.149.454c-.451.1-.919.086-1.377.193a3.535,3.535,0,0,0-2.041,1.583,10.721,10.721,0,0,1-.75,1.156c-.251.3-.564.544-.829.829a7.175,7.175,0,0,0-1.439,3.9,18.486,18.486,0,0,1-2.45,2.158,3.439,3.439,0,0,1-.909.5,2.882,2.882,0,0,1-2.5-.592c-.719-.52-1.3-1.2-2.013-1.721-.651.929-1.332,1.865-2.027,2.753a.871.871,0,0,1-.454.372c-.131.44.182.895.416,1.287l1.256,2.113a10.714,10.714,0,0,0,1.518,2.127,3.562,3.562,0,0,0,2.309,1.084,4.567,4.567,0,0,0,1.621-.313,61.319,61.319,0,0,0,6.883-3.183,3.06,3.06,0,0,1,1.349-.4,1.091,1.091,0,0,1,1.067.767c.262,1.322.52,2.636.878,3.93q.513,1.838.946,3.686a15.912,15.912,0,0,1,.413,2.3c.038.441.041.881.048,1.325l.048,5.341a3.186,3.186,0,0,1-.578,1.452,3.442,3.442,0,0,0-.162,2.567c.141.416.365.8.523,1.215a8.367,8.367,0,0,1,.344,3.152l-.045,2.437a.509.509,0,0,0,.052.3c.148.231.506.1.733-.062l1.125-.771a26.036,26.036,0,0,0,4.6.224c4.374-.062,8.752.11,13.116.416a10.748,10.748,0,0,0,4.34-.272c.688-.248,1.342-.644,2.065-.84a1.886,1.886,0,0,0,.816-.344c.4-.368.292-1.033.131-1.535-.145-.454-.306-.905-.489-1.346a8.173,8.173,0,0,1-.454-1.256c-.217-.971,0-2.1-.609-2.887-1.356-1.772-.4-4.5-.967-6.659-.182-.688-.454-1.377-.626-2.065-.11-.441-.179-.888-.244-1.335a15.637,15.637,0,0,1-.265-2.939,11.8,11.8,0,0,1,.141-1.473l.43-3.4a10.821,10.821,0,0,1,1.108,3.214,47.19,47.19,0,0,0,1.445,4.959c.323.981.647,1.958,1,2.932a9.551,9.551,0,0,1,.513,1.721c.076.471.079.953.134,1.425a6.5,6.5,0,0,0,1.032,2.846.936.936,0,0,0,.489.434.982.982,0,0,0,.423,0,16.844,16.844,0,0,0,4.378-1.514,1.786,1.786,0,0,0,.74-.578c.372-.606-.045-1.359-.227-2.048s-.148-1.621-.726-2.113c-2.02-1.721-1.032-5.207-2.027-7.658-.179-.43-.385-.847-.537-1.287-.117-.344-.2-.688-.289-1.032q-1.057-4.278-2.265-8.525c-.833-2.932-.743-5.985-1.793-8.848a9.332,9.332,0,0,0-.767-1.721,4.7,4.7,0,0,0-1.377-1.435,13.774,13.774,0,0,0-4.853-2.23A26.861,26.861,0,0,0,638.23,531.478Z" transform="translate(-408.587 -355.141)" fill="#3f3d56"/>
    <path id="Path_40120" data-name="Path 40120" d="M656.612,493.046c-.774-.416-.571-1.552-.688-2.409-.272-1.793-2.292-2.853-2.753-4.6a3.1,3.1,0,0,0,1.6-.227,2.457,2.457,0,0,0-.324-1.679c1.662-.688,3.011-2,4.7-2.609,2.127-.767,4.474-.3,6.635.416a5.278,5.278,0,0,1,2.829,1.738,5.937,5.937,0,0,1,.661,3.586,13.582,13.582,0,0,1-1,5.689c-1.1,2.213-4.212,4.261-6.787,3.662-1.067-.248-1.377-.922-1.834-1.852-.282-.578-.385-1.249-1.033-1.552S657.241,493.383,656.612,493.046Z" transform="translate(-440.421 -323.675)" fill="#3f3d56"/>
    <g id="Group_3100" data-name="Group 3100" transform="translate(196.04 192.825)" opacity="0.1">
      <path id="Path_40121" data-name="Path 40121" d="M659.437,666.719a.125.125,0,0,0,0,.031c.148.231.506.1.733-.062l1.143-.788a26.029,26.029,0,0,0,4.6.22c4.374-.062,8.752.11,13.116.416a10.747,10.747,0,0,0,4.34-.272c.688-.248,1.342-.64,2.065-.84a2.376,2.376,0,0,0,.712-.255c.083.227.162.454.234.688.162.52.268,1.167-.131,1.535a1.885,1.885,0,0,1-.816.344c-.716.2-1.377.592-2.065.84a10.746,10.746,0,0,1-4.34.272c-4.364-.306-8.742-.478-13.116-.416a26.027,26.027,0,0,1-4.6-.224l-1.143.792c-.227.158-.585.293-.733.062a.509.509,0,0,1-.052-.3Q659.416,667.744,659.437,666.719Z" transform="translate(-640.539 -637.204)"/>
      <path id="Path_40122" data-name="Path 40122" d="M728.9,598.09a10.824,10.824,0,0,0-1.108-3.214l-.43,3.4c-.028.213-.055.427-.079.64a10.537,10.537,0,0,1-.062-1.473,11.774,11.774,0,0,1,.141-1.473l.43-3.4a10.824,10.824,0,0,1,1.108,3.214,47.2,47.2,0,0,0,1.445,4.959c.323.981.647,1.962,1,2.932a9.636,9.636,0,0,1,.513,1.721c.076.471.079.953.134,1.425a6.45,6.45,0,0,0,1.032,2.846.915.915,0,0,0,.485.434.981.981,0,0,0,.423-.017,16.844,16.844,0,0,0,4.378-1.514,2.753,2.753,0,0,0,.513-.327h0c.182.688.6,1.442.227,2.048a1.786,1.786,0,0,1-.74.578,16.842,16.842,0,0,1-4.378,1.514.98.98,0,0,1-.423,0,.915.915,0,0,1-.485-.434,6.464,6.464,0,0,1-1.032-2.846c-.055-.471-.059-.953-.134-1.425a9.554,9.554,0,0,0-.513-1.721c-.344-.974-.688-1.951-1-2.932A47.175,47.175,0,0,1,728.9,598.09Z" transform="translate(-685.025 -589.59)"/>
      <path id="Path_40123" data-name="Path 40123" d="M731.08,635.84v.461C731.087,636.146,731.083,635.995,731.08,635.84Z" transform="translate(-687.558 -617.968)"/>
      <path id="Path_40124" data-name="Path 40124" d="M657.222,650.469a8.365,8.365,0,0,1,.344,3.152v.833a5.681,5.681,0,0,0-.344-1.68c-.158-.413-.382-.8-.523-1.215a3.442,3.442,0,0,1,.028-2.24C656.867,649.712,657.07,650.081,657.222,650.469Z" transform="translate(-638.661 -626.809)"/>
      <path id="Path_40125" data-name="Path 40125" d="M605.116,584.165l.2-.255,1.032,1.721a10.614,10.614,0,0,0,1.518,2.127,3.562,3.562,0,0,0,2.3,1.119,4.641,4.641,0,0,0,1.621-.31,61.968,61.968,0,0,0,6.883-3.187,3.06,3.06,0,0,1,1.328-.406,1.1,1.1,0,0,1,1.067.771c.262,1.318.52,2.633.878,3.927q.513,1.838.946,3.686a15.91,15.91,0,0,1,.413,2.3c.038.441.041.885.045,1.325l.052,5.345a1.28,1.28,0,0,1-.021.234l-.031-3.273a13.094,13.094,0,0,0-.045-1.325,15.911,15.911,0,0,0-.413-2.3q-.441-1.848-.946-3.686c-.344-1.294-.616-2.609-.878-3.93a1.091,1.091,0,0,0-1.067-.768,3.061,3.061,0,0,0-1.349.4,60.489,60.489,0,0,1-6.883,3.183,4.565,4.565,0,0,1-1.621.313,3.562,3.562,0,0,1-2.3-1.119,10.715,10.715,0,0,1-1.518-2.127c-.416-.706-.836-1.408-1.256-2.113-.234-.392-.547-.847-.416-1.287a.87.87,0,0,0,.465-.361Z" transform="translate(-604.62 -583.91)"/>
    </g>
    <g id="Group_3101" data-name="Group 3101" transform="translate(212.735 160.319)" opacity="0.1">
      <path id="Path_40126" data-name="Path 40126" d="M657.147,490.427h0a2.409,2.409,0,0,0-.317-.843q.144-.059.289-.124a2.409,2.409,0,0,1,.028.967Z" transform="translate(-655.557 -489.46)"/>
      <path id="Path_40127" data-name="Path 40127" d="M655.883,499.122c.131.871-.072,2,.688,2.409.626.344,1.377-.141,1.993.155s.737.974,1.032,1.552c.451.929.767,1.6,1.834,1.852,2.574.6,5.689-1.452,6.787-3.665a13.582,13.582,0,0,0,1-5.689v.84a13.582,13.582,0,0,1-1,5.689c-1.1,2.213-4.213,4.261-6.787,3.662-1.067-.248-1.377-.922-1.834-1.852-.282-.578-.385-1.249-1.032-1.552s-1.377.186-1.993-.151c-.774-.416-.571-1.552-.688-2.409-.272-1.793-2.292-2.853-2.753-4.6a2.7,2.7,0,0,0,.375.024C654.245,496.661,655.66,497.645,655.883,499.122Z" transform="translate(-653.13 -493.329)"/>
    </g>
    <path id="Path_40128" data-name="Path 40128" d="M245.316,785.729a10.425,10.425,0,0,0-3.025-1.07,14.027,14.027,0,0,0,2.265-.509c1.965-.623,2.956-1.456,2.213-1.865s-2.943-.237-4.908.385a7.673,7.673,0,0,0-1.886.836,3.778,3.778,0,0,0-1.618-1.4c-1.745-.96-4.092-1.442-5.242-1.081s-.664,1.435,1.084,2.409a10.577,10.577,0,0,0,2.712,1.008,15.763,15.763,0,0,0-1.865.344c-2.137.513-3.376,1.291-2.753,1.721s2.846.389,4.987-.124a9.479,9.479,0,0,0,2.244-.8,3.577,3.577,0,0,0,1.645,1.473c1.745.957,4.092,1.442,5.242,1.081S247.061,786.686,245.316,785.729Z" transform="translate(-164.287 -520.28)" fill="#fa5a60"/>
    <path id="Path_40129" data-name="Path 40129" d="M180.228,693.043a6.486,6.486,0,0,0-1.9-.668,8.515,8.515,0,0,0,1.425-.32c1.229-.389,1.852-.912,1.377-1.167a5.336,5.336,0,0,0-3.07.241,4.754,4.754,0,0,0-1.177.523,2.374,2.374,0,0,0-1.032-.878,5.229,5.229,0,0,0-3.28-.688c-.719.217-.413.9.688,1.5a6.683,6.683,0,0,0,1.721.63,10.659,10.659,0,0,0-1.174.206c-1.339.32-2.113.809-1.721,1.084a5.483,5.483,0,0,0,3.118-.076,5.925,5.925,0,0,0,1.4-.5,2.24,2.24,0,0,0,1.032.919,5.242,5.242,0,0,0,3.283.688C181.643,694.327,181.323,693.645,180.228,693.043Z" transform="translate(-124.839 -460.674)" fill="#fa5a60"/>
    <ellipse id="Ellipse_230" data-name="Ellipse 230" cx="11.113" cy="2.137" rx="11.113" ry="2.137" transform="translate(254.395 278.785)" fill="#fa5a60"/>
    <ellipse id="Ellipse_231" data-name="Ellipse 231" cx="1.294" cy="1.693" rx="1.294" ry="1.693" transform="translate(264.028 278.321)" fill="#3f3d56"/>
    <ellipse id="Ellipse_232" data-name="Ellipse 232" cx="1.294" cy="1.693" rx="1.294" ry="1.693" transform="translate(264.028 276.252)" fill="#3f3d56"/>
    <ellipse id="Ellipse_233" data-name="Ellipse 233" cx="1.294" cy="1.693" rx="1.294" ry="1.693" transform="translate(264.028 274.18)" fill="#3f3d56"/>
    <ellipse id="Ellipse_234" data-name="Ellipse 234" cx="1.294" cy="1.693" rx="1.294" ry="1.693" transform="translate(264.028 272.112)" fill="#3f3d56"/>
    <ellipse id="Ellipse_235" data-name="Ellipse 235" cx="1.294" cy="1.693" rx="1.294" ry="1.693" transform="translate(264.028 270.04)" fill="#3f3d56"/>
    <ellipse id="Ellipse_236" data-name="Ellipse 236" cx="1.294" cy="1.693" rx="1.294" ry="1.693" transform="translate(264.028 267.972)" fill="#3f3d56"/>
    <ellipse id="Ellipse_237" data-name="Ellipse 237" cx="1.294" cy="1.693" rx="1.294" ry="1.693" transform="translate(264.028 265.9)" fill="#3f3d56"/>
    <path id="Path_40130" data-name="Path 40130" d="M798.908,740.916a6.279,6.279,0,0,0,.482-.709l-3.4-.558,3.676.028a6.215,6.215,0,0,0,.12-4.911l-4.935,2.561,4.55-3.345a6.195,6.195,0,1,0-10.232,6.935,6.312,6.312,0,0,0-.709,1.132l4.416,2.292-4.708-1.58a6.246,6.246,0,0,0-.327,1.989,6.153,6.153,0,0,0,1.328,3.83,6.195,6.195,0,1,0,9.743,0A6.2,6.2,0,0,0,798.908,740.916Z" transform="translate(-528.744 -487.489)" fill="#fa5a60"/>
    <path id="Path_40131" data-name="Path 40131" d="M787.84,770.956a24.6,24.6,0,0,1,2,12.209,6.195,6.195,0,0,0,9.074-8.378C799.741,773.734,787.84,770.261,787.84,770.956Z" transform="translate(-528.744 -513.698)" opacity="0.1"/>
  </g>
</svg>
