<svg xmlns="http://www.w3.org/2000/svg" width="374.613" height="303.027" viewBox="0 0 374.613 303.027">
  <g id="taking_selfie" transform="translate(0)">
    <path id="Path_40082" data-name="Path 40082" d="M200.594,300.716,429.188,185.433,335.672,0,98.794,108.389Z" transform="translate(-54.576)" fill="#f2f2f2"/>
    <circle id="Ellipse_218" data-name="Ellipse 218" cx="13.986" cy="13.986" r="13.986" transform="translate(292.387 207.657)" fill="#fa5a60" opacity="0.4"/>
    <circle id="Ellipse_219" data-name="Ellipse 219" cx="9.811" cy="9.811" r="9.811" transform="translate(270.677 218.512)" fill="#fa5a60" opacity="0.4"/>
    <rect id="Rectangle_1601" data-name="Rectangle 1601" width="43.863" height="43.863" transform="translate(39.864 202.788) rotate(30)" fill="#f2f2f2"/>
    <path id="Path_40083" data-name="Path 40083" d="M760.364,405.184a9.847,9.847,0,1,1,9.847-9.847A9.847,9.847,0,0,1,760.364,405.184Zm0-18.8a8.952,8.952,0,1,0,8.952,8.952,8.952,8.952,0,0,0-8.952-8.952Z" transform="translate(-495.842 -262.85)" fill="#3f3d56"/>
    <path id="Path_40084" data-name="Path 40084" d="M383.364,342.184a9.847,9.847,0,1,1,9.847-9.847A9.847,9.847,0,0,1,383.364,342.184Zm0-18.8a8.952,8.952,0,1,0,8.952,8.952,8.952,8.952,0,0,0-8.952-8.952Z" transform="translate(-287.581 -228.048)" fill="#3f3d56"/>
    <path id="Path_40085" data-name="Path 40085" d="M296.364,691.184a9.847,9.847,0,1,1,9.847-9.847A9.847,9.847,0,0,1,296.364,691.184Zm0-18.8a8.952,8.952,0,1,0,8.952,8.952A8.952,8.952,0,0,0,296.364,672.385Z" transform="translate(-239.521 -420.841)" fill="#3f3d56"/>
    <ellipse id="Ellipse_220" data-name="Ellipse 220" cx="15.218" cy="9.175" rx="15.218" ry="9.175" transform="translate(123.569 109.337) rotate(-48.312)" fill="#2f2e41"/>
    <circle id="Ellipse_221" data-name="Ellipse 221" cx="39.835" cy="39.835" r="39.835" transform="translate(129.576 92.438)" fill="#2f2e41"/>
    <path id="Path_40086" data-name="Path 40086" d="M245.581,367.764l-37.026,3.029a6.127,6.127,0,0,0-5.611,5.663l-1.383,19.079a6.127,6.127,0,0,0,6.111,6.569H224.36v.9h6.714v-.9h3.581v.9h6.714v-.9h3.579a6.127,6.127,0,0,0,6.119-5.813l1.134-22.108a6.127,6.127,0,0,0-6.618-6.42Z" transform="translate(-192.581 -253.047)" fill="#2f2e41"/>
    <path id="Path_40087" data-name="Path 40087" d="M276.284,472.13l-52.367-24.617-9.4,14.77s27.23,17.383,28.645,18.8c2.014,2.014,23.722,16.113,32.226,13.875S279.864,474.368,276.284,472.13Z" transform="translate(-199.747 -297.113)" fill="#ffbcc6"/>
    <path id="Path_40088" data-name="Path 40088" d="M242.714,641.922,236,657.14h69.5l-5.049-16.113Z" transform="translate(-130.37 -354.113)" fill="#2f2e41"/>
    <path id="Path_40089" data-name="Path 40089" d="M527.219,467.32s2.685,14.77,0,16.561,17.9,23.722,17.9,23.722l8.5-7.609,2.685-17.456s-8.057-11.19-4.476-21.036S527.219,467.32,527.219,467.32Z" transform="translate(-372.355 -303.044)" fill="#ffbcc6"/>
    <circle id="Ellipse_222" data-name="Ellipse 222" cx="28.645" cy="28.645" r="28.645" transform="translate(134.275 111.461)" fill="#ffbcc6"/>
    <path id="Path_40090" data-name="Path 40090" d="M486.768,520.375s-11.19-17.008-17.456-18.351-12.085-.448-15.665,0-15.665-4.028-22.827-.9,0,39.835,0,39.835-8.057,47-4.476,59.081.9,14.323-.9,15.665,40.73,13.428,40.73,13.428h40.283s0-12.98,4.028-16.113,3.581-69.376,3.581-69.376L527.5,517.69s-2.238-9.847-11.637-10.294-17.789-5.382-17.789-5.382l-6.38,18.362Z" transform="translate(-316.239 -326.112)" fill="#fa5a60"/>
    <path id="Path_40091" data-name="Path 40091" d="M379.675,500.232l-4.028-2.238s-7.609.448-8.952,0-18.351-5.819-25.065-2.686-11.19-.9-11.19-.9,21.932,18.8-4.923,24.617c0,0,.448,2.238,7.161,3.581s8.057,2.685,10.742,4.923,8.057,4.476,11.637,5.371,15.218,8.5,17.008,6.714,4.923-8.057,4.923-8.057Z" transform="translate(-261.065 -322.976)" fill="#fa5a60"/>
    <path id="Path_40092" data-name="Path 40092" d="M618.317,528.513l8.5,4.923s11.19,33.121,9.4,41.178-3.581,6.714-.9,12.085,5.371,5.819,3.581,10.742-.9,17.008-3.581,21.932-15.665,20.589-26.855-5.819S618.317,528.513,618.317,528.513Z" transform="translate(-415.561 -341.858)" fill="#fa5a60"/>
    <path id="Path_40093" data-name="Path 40093" d="M626.64,564.391s-6.266-12.532-7.609-13.428-7.609-31.779-7.609-31.779,9.847-16.113.9-23.274c0,0,16.561-23.274,11.19-22.827s-16.113,17.456-16.113,17.456-2.462-.671-1.567-4.252,4.252-16.337,1.567-16.784-8.057,18.8-8.057,18.8-10.966,19.918-7.609,26.855a86.489,86.489,0,0,0,6.714,11.19l7.609,55.5S620.822,599.751,626.64,564.391Z" transform="translate(-407.772 -309.256)" fill="#ffbcc6"/>
    <ellipse id="Ellipse_223" data-name="Ellipse 223" cx="4.923" cy="2.238" rx="4.923" ry="2.238" transform="translate(45.206 118.622)" fill="#fa5a60"/>
    <path id="Path_40094" data-name="Path 40094" d="M201.658,424.158h-6.266s-13.875-4.476-13.875-14.77,4.028-31.331,16.561-30.883.9,28.2.9,28.2l7.587,3.1.022,9.437Z" transform="translate(-181.517 -258.987)" fill="#ffbcc6"/>
    <ellipse id="Ellipse_224" data-name="Ellipse 224" cx="25.512" cy="12.98" rx="25.512" ry="12.98" transform="translate(132.709 108.104)" fill="#2f2e41"/>
    <ellipse id="Ellipse_225" data-name="Ellipse 225" cx="2.238" cy="4.923" rx="2.238" ry="4.923" transform="translate(190.447 132.273)" fill="#ffbcc6"/>
    <ellipse id="Ellipse_226" data-name="Ellipse 226" cx="9.175" cy="15.218" rx="9.175" ry="15.218" transform="translate(190.986 101.557) rotate(-25.902)" fill="#2f2e41"/>
  </g>
</svg>
